<?xml version="1.0" encoding="iso-8859-1"?>
<!-- Uploaded to: SVG Repo, www.svgrepo.com, Generator: SVG Repo Mixer Tools -->
<svg fill="#000000" height="800px" width="800px" version="1.1" id="Layer_1" xmlns="http://www.w3.org/2000/svg" xmlns:xlink="http://www.w3.org/1999/xlink" 
	 viewBox="0 0 512 512" xml:space="preserve">
<g>
	<g>
		<path d="M256,0C114.843,0,0,114.843,0,256c0,141.157,114.843,256,256,256s256-114.843,256-256C512,114.843,397.157,0,256,0z
			 M256,493.037C125.296,493.037,18.963,386.704,18.963,256C18.963,125.296,125.296,18.963,256,18.963S493.037,125.296,493.037,256
			C493.037,386.704,386.704,493.037,256,493.037z"/>
	</g>
</g>
<g>
	<g>
		<path d="M395.444,145c-3.704-3.704-9.704-3.704-13.407,0l-49.546,49.546l-40.759-48.912c-3.361-4.014-9.315-4.569-13.361-1.213
			c-4.018,3.352-4.565,9.329-1.213,13.352l47.407,56.889c1.713,2.046,4.194,3.282,6.861,3.403c0.139,0.005,0.287,0.009,0.426,0.009
			c2.509,0,4.926-0.995,6.704-2.778l56.889-56.889C399.148,154.704,399.148,148.704,395.444,145z"/>
	</g>
</g>
<g>
	<g>
		<path d="M233.63,144.421c-4.037-3.356-10.009-2.801-13.361,1.213l-40.759,48.912L129.963,145c-3.704-3.704-9.704-3.704-13.407,0
			c-3.704,3.704-3.704,9.704,0,13.408l56.889,56.889c1.778,1.782,4.194,2.778,6.704,2.778c0.139,0,0.287-0.005,0.426-0.009
			c2.667-0.12,5.148-1.356,6.861-3.403l47.407-56.889C238.195,153.75,237.648,147.773,233.63,144.421z"/>
	</g>
</g>
<g>
	<g>
		<path d="M407.704,274.963c-5.241,0-9.482,4.246-9.482,9.482c0,62.736-63.796,113.778-142.222,113.778
			s-142.222-51.042-142.222-113.778c0-5.236-4.241-9.482-9.481-9.482c-5.241,0-9.482,4.246-9.482,9.482
			c0,73.194,72.306,132.741,161.185,132.741s161.185-59.546,161.185-132.741C417.185,279.209,412.944,274.963,407.704,274.963z"/>
	</g>
</g>
</svg>