<svg width="24" height="24" viewBox="0 0 24 24" fill="none" xmlns="http://www.w3.org/2000/svg">
<path fill-rule="evenodd" clip-rule="evenodd" d="M1 6.91525C1 6.40977 1.40664 6 1.90826 6H22.0917C22.5934 6 23 6.40977 23 6.91525C23 7.42074 22.5934 7.83051 22.0917 7.83051H1.90826C1.40664 7.83051 1 7.42074 1 6.91525ZM1 12C1 11.4945 1.40664 11.0847 1.90826 11.0847H22.0917C22.5934 11.0847 23 11.4945 23 12C23 12.5055 22.5934 12.9153 22.0917 12.9153H1.90826C1.40664 12.9153 1 12.5055 1 12ZM1 17.0847C1 16.5793 1.40664 16.1695 1.90826 16.1695H22.0917C22.5934 16.1695 23 16.5793 23 17.0847C23 17.5902 22.5934 18 22.0917 18H1.90826C1.40664 18 1 17.5902 1 17.0847Z" fill="#FEFFE0"/>
</svg>
