<svg width="24" height="24" viewBox="0 0 24 24" fill="none" xmlns="http://www.w3.org/2000/svg">
<rect x="2" y="2" width="20" height="20" rx="4" fill="url(#paint0_linear_11726_42957)"/>
<path d="M16.485 14.04C16.365 15.375 15.4 16.25 14 16.25H9.5C8.12 16.25 7 15.13 7 13.75V10.25C7 8.89 7.82 7.94 9.095 7.78C9.225 7.76 9.36 7.75 9.5 7.75H14C14.13 7.75 14.255 7.755 14.375 7.775C15.57 7.915 16.38 8.75 16.485 9.96C16.5 10.105 16.38 10.225 16.235 10.225H15.46C14.98 10.225 14.535 10.41 14.215 10.74C13.835 11.11 13.645 11.63 13.69 12.15C13.77 13.06 14.57 13.775 15.52 13.775H16.235C16.38 13.775 16.5 13.895 16.485 14.04Z" fill="#FEFFE0"/>
<path d="M17.0001 11.4866V12.5166C17.0001 12.7916 16.7801 13.0166 16.5001 13.0266H15.5201C14.9801 13.0266 14.4851 12.6316 14.4401 12.0916C14.4101 11.7766 14.5301 11.4816 14.7401 11.2766C14.9251 11.0866 15.1801 10.9766 15.4601 10.9766H16.5001C16.7801 10.9866 17.0001 11.2116 17.0001 11.4866Z" fill="#FEFFE0"/>
<defs>
<linearGradient id="paint0_linear_11726_42957" x1="12" y1="2" x2="12" y2="22" gradientUnits="userSpaceOnUse">
<stop stop-color="#3EBD1E"/>
<stop offset="1" stop-color="#08B859"/>
</linearGradient>
</defs>
</svg>
